<?xml version="1.0" encoding="UTF-8"?>
<!DOCTYPE svg PUBLIC "-//W3C//DTD SVG 1.1//EN" "http://www.w3.org/Graphics/SVG/1.1/DTD/svg11.dtd">
<!-- Creator: CorelDRAW 2018 (64-Bit) -->
<svg xmlns="http://www.w3.org/2000/svg" xml:space="preserve" width="367px" height="367px" version="1.1" style="shape-rendering:geometricPrecision; text-rendering:geometricPrecision; image-rendering:optimizeQuality; fill-rule:evenodd; clip-rule:evenodd"
viewBox="0 0 285.59 285.59"
 xmlns:xlink="http://www.w3.org/1999/xlink">
 <defs>
  <style type="text/css">
   <![CDATA[
    .str0 {stroke:#7D70B1;stroke-width:9.18;stroke-miterlimit:22.9256}
    .fil0 {fill:none}
    .fil1 {fill:#7D70B1;fill-rule:nonzero}
   ]]>
  </style>
 </defs>
 <g id="Слой_x0020_1">
  <metadata id="CorelCorpID_0Corel-Layer"/>
  <g id="_3228147333472">
   <circle class="fil0 str0" cx="142.79" cy="142.79" r="138.2"/>
   <path class="fil1" d="M105 143.23l0 -55.8c0,-6.89 2.81,-13.14 7.35,-17.68l0.02 -0.02c2.53,-2.53 5.59,-4.52 9,-5.79l0 -25.79 33.87 0 0 25.79c3.41,1.27 6.47,3.26 9,5.79l0.02 0c4.54,4.54 7.35,10.81 7.35,17.7l0 126.84c0,2.08 -0.85,3.98 -2.22,5.35l-0.01 -0.01c-1.37,1.37 -3.26,2.23 -5.33,2.23l-19.06 0 0 -9.18 17.44 0 0 -125.23c0,-4.36 -1.78,-8.33 -4.66,-11.21l0.01 -0.01c-2.88,-2.87 -6.85,-4.65 -11.21,-4.65l-16.53 0c-4.36,0 -8.33,1.78 -11.21,4.65 -2.87,2.88 -4.65,6.85 -4.65,11.22l0 55.8 -9.18 0zm-55.71 6.5l94.01 0 0 53.3c0,5.26 -2.15,10.03 -5.61,13.5l-0.02 0.02c-3.47,3.46 -8.24,5.61 -13.5,5.61l-60.34 0c-5.26,0 -10.04,-2.15 -13.5,-5.61l-0.02 -0.02c-3.46,-3.47 -5.61,-8.24 -5.61,-13.5l0 -53.3 4.59 0zm4.59 24.72l80.24 0 0 -15.54 -80.24 0 0 15.54zm80.24 9.18l-80.24 0 0 19.4c0,2.74 1.11,5.23 2.91,7.04 1.81,1.8 4.3,2.91 7.04,2.91l60.34 0c2.74,0 5.23,-1.11 7.03,-2.91 1.8,-1.81 2.92,-4.3 2.92,-7.04l0 -19.4zm103.71 -85.12l-11.08 89.13 -38.07 0.31c-4.57,-36.87 -10.59,-71.61 -11.63,-108.45l61.33 0c-0.17,5.87 0.1,13.52 -0.55,19.01zm-19.2 80.05l10.09 -81.11 0.25 -8.77 -42.51 0 0.25 8.77 10.08 81.29 21.84 -0.18zm-30.31 16.06l38.79 0 0 26.36 -38.79 0 0 -26.36z"/>
  </g>
 </g>
</svg>
