<?xml version="1.0" encoding="UTF-8"?>
<!DOCTYPE svg PUBLIC "-//W3C//DTD SVG 1.1//EN" "http://www.w3.org/Graphics/SVG/1.1/DTD/svg11.dtd">
<!-- Creator: CorelDRAW 2018 (64-Bit) -->
<svg xmlns="http://www.w3.org/2000/svg" xml:space="preserve" width="367px" height="367px" version="1.1" style="shape-rendering:geometricPrecision; text-rendering:geometricPrecision; image-rendering:optimizeQuality; fill-rule:evenodd; clip-rule:evenodd"
viewBox="0 0 239.41 239.41"
 xmlns:xlink="http://www.w3.org/1999/xlink">
 <defs>
  <style type="text/css">
   <![CDATA[
    .str0 {stroke:#7D70B1;stroke-width:7.7;stroke-miterlimit:22.9256}
    .fil0 {fill:none}
    .fil1 {fill:#7D70B1}
   ]]>
  </style>
 </defs>
 <g id="Слой_x0020_1">
  <metadata id="CorelCorpID_0Corel-Layer"/>
  <g id="_3228360823792">
   <circle class="fil0 str0" cx="119.71" cy="119.71" r="115.86"/>
   <path class="fil1" d="M130.36 62.91c7.27,4.96 13.38,11.52 17.8,19.18 0.17,-0.44 0.33,-0.89 0.47,-1.35 0.83,-2.57 1.28,-5.34 1.28,-8.24 0,-4.34 -1.03,-8.43 -2.85,-12.06l-0.99 -0.02 0 0.02c-5.48,0 -10.77,0.86 -15.71,2.47zm20.61 29.94l0 0.25c0,15.86 -13.23,29.54 -29.55,29.54 -16.31,0 -29.54,-13.23 -29.54,-29.54 0,-0.37 0.01,-0.73 0.04,-1.08 -1.87,-2.72 -3.36,-5.73 -4.39,-8.93 -1.08,-3.36 -1.66,-6.92 -1.66,-10.59 0,-9.55 3.87,-18.2 10.13,-24.46 6.26,-6.26 14.9,-10.13 24.46,-10.13 0.42,0 0.85,0.01 1.27,0.02 0.43,-0.01 0.86,-0.02 1.28,-0.02 9.56,0 18.2,3.87 24.46,10.13 6.26,6.26 10.13,14.91 10.13,24.46 0,3.67 -0.58,7.23 -1.66,10.59 -1.11,3.45 -2.75,6.67 -4.83,9.57l-0.14 0.19zm-17.31 -43.81c-3.88,-2.18 -8.38,-3.43 -13.2,-3.43 -7.43,0 -14.16,3.01 -19.02,7.87 -4.87,4.87 -7.88,11.59 -7.88,19.02 0,2.9 0.45,5.67 1.28,8.24 0.14,0.46 0.3,0.91 0.47,1.35 4.51,-7.81 10.77,-14.49 18.25,-19.49 7.5,-5.01 16.21,-8.34 25.59,-9.45 -1.64,-1.59 -3.49,-2.98 -5.49,-4.11zm-24.01 32.98c4.21,0 7.62,2.68 7.62,6 0,3.31 -3.41,6 -7.62,6 -4.21,0 -7.61,-2.69 -7.61,-6 0,-3.32 3.4,-6 7.61,-6zm23.55 0c4.2,0 7.61,2.68 7.61,6 0,3.31 -3.41,6 -7.61,6 -4.21,0 -7.62,-2.69 -7.62,-6 0,-3.32 3.41,-6 7.62,-6zm-20.06 3.94c1.03,-0.23 2.06,0.42 2.29,1.45 0.23,1.04 -0.42,2.06 -1.45,2.29 -0.69,0.16 -1.39,0.28 -2.1,0.36 -0.73,0.08 -1.45,0.12 -2.16,0.12 -0.82,0 -1.66,-0.06 -2.51,-0.17 -0.87,-0.11 -1.68,-0.27 -2.44,-0.47 -1.02,-0.28 -1.63,-1.33 -1.36,-2.36 0.27,-1.02 1.33,-1.63 2.35,-1.36 0.64,0.18 1.29,0.31 1.93,0.39 0.62,0.08 1.3,0.12 2.03,0.12 0.62,0 1.2,-0.03 1.74,-0.09 0.58,-0.06 1.15,-0.16 1.68,-0.28zm15.71 3.74c-1.03,-0.23 -1.68,-1.25 -1.45,-2.29 0.23,-1.03 1.26,-1.68 2.29,-1.45 0.54,0.12 1.1,0.22 1.68,0.28 0.54,0.06 1.12,0.09 1.74,0.09 0.73,0 1.41,-0.04 2.03,-0.12 0.64,-0.08 1.29,-0.21 1.93,-0.39 1.02,-0.27 2.08,0.34 2.35,1.36 0.28,1.03 -0.33,2.08 -1.36,2.36 -0.76,0.2 -1.57,0.36 -2.44,0.47 -0.85,0.11 -1.69,0.17 -2.51,0.17 -0.71,0 -1.43,-0.04 -2.16,-0.12 -0.71,-0.08 -1.41,-0.2 -2.1,-0.36zm-2.03 14.61c1.01,-0.32 2.09,0.23 2.41,1.24 0.33,1.01 -0.23,2.09 -1.23,2.41 -1.04,0.34 -2.12,0.6 -3.24,0.77 -1.11,0.18 -2.22,0.27 -3.32,0.27 -1.3,0 -2.6,-0.13 -3.88,-0.36 -1.29,-0.24 -2.54,-0.6 -3.74,-1.06 -0.99,-0.38 -1.49,-1.48 -1.11,-2.47 0.38,-0.99 1.49,-1.48 2.47,-1.11 0.98,0.38 2,0.67 3.07,0.87 1.01,0.18 2.08,0.28 3.19,0.28 0.96,0 1.87,-0.07 2.73,-0.2 0.9,-0.15 1.79,-0.36 2.65,-0.64zm13.93 24.67l12.29 5.93c2.93,1.42 5.76,3.46 8.03,5.91 2.17,2.34 3.87,5.09 4.73,8.07l11.84 40.82 -2.24 1.57c-7.5,5.27 -16.69,9.64 -26.16,12.7 -9.5,3.06 -19.34,4.79 -28.11,4.77 -9.22,-0.03 -18.04,-1.28 -26.81,-4.08 -8.74,-2.79 -17.42,-7.1 -26.39,-13.27l-2.18 -1.5 9.64 -39.99c0.75,-3.08 2.31,-5.98 4.38,-8.51 2.14,-2.63 4.86,-4.9 7.77,-6.57 2.61,-1.5 5.44,-2.88 8.17,-4.03 2.93,-1.24 5.77,-2.23 8.12,-2.84l3.31 -0.86 15.18 39.48 14.64 -39.43 3.79 1.83zm8.95 12.85l-8.49 -4.1 -18.76 50.52 -19.95 -51.86c-1.21,0.42 -2.5,0.92 -3.82,1.48 -2.47,1.04 -5.01,2.28 -7.33,3.61 -2.1,1.2 -4.07,2.85 -5.63,4.76 -1.38,1.69 -2.41,3.56 -2.87,5.48l-8.41 34.83c7.55,4.95 14.86,8.48 22.19,10.81 8,2.55 16.06,3.69 24.5,3.72 7.96,0.03 16.98,-1.58 25.76,-4.41 7.82,-2.52 15.41,-6 21.84,-10.15l-10.29 -35.5c-0.51,-1.75 -1.59,-3.45 -2.99,-4.97 -1.62,-1.74 -3.65,-3.21 -5.75,-4.22z"/>
  </g>
 </g>
</svg>
