<?xml version="1.0" encoding="UTF-8"?>
<!DOCTYPE svg PUBLIC "-//W3C//DTD SVG 1.1//EN" "http://www.w3.org/Graphics/SVG/1.1/DTD/svg11.dtd">
<!-- Creator: CorelDRAW 2018 (64-Bit) -->
<svg xmlns="http://www.w3.org/2000/svg" xml:space="preserve" width="367px" height="367px" version="1.1" style="shape-rendering:geometricPrecision; text-rendering:geometricPrecision; image-rendering:optimizeQuality; fill-rule:evenodd; clip-rule:evenodd"
viewBox="0 0 262.39 262.39"
 xmlns:xlink="http://www.w3.org/1999/xlink">
 <defs>
  <style type="text/css">
   <![CDATA[
    .str0 {stroke:#7D70B1;stroke-width:8.44;stroke-miterlimit:22.9256}
    .fil0 {fill:none}
    .fil1 {fill:#7D70B1}
   ]]>
  </style>
 </defs>
 <g id="Слой_x0020_1">
  <metadata id="CorelCorpID_0Corel-Layer"/>
  <g id="_3228147323424">
   <circle class="fil0 str0" cx="131.2" cy="131.2" r="126.98"/>
   <path class="fil1" d="M94.13 161.29c9.42,0 17.05,7.64 17.05,17.06 0,9.41 -7.63,17.05 -17.05,17.05 -9.42,0 -17.05,-7.64 -17.05,-17.05 0,-9.42 7.63,-17.06 17.05,-17.06zm-12.15 -50.94l15.23 15.24 34.62 -34.62 5.96 5.97 -40.58 40.57 -21.19 -21.19 5.96 -5.97zm-14.1 -45.47l70.95 0c6.16,0 11.76,2.52 15.82,6.58l0.02 0.02c4.06,4.06 6.58,9.66 6.58,15.82l0 13.15 36.71 0 21.7 34.62 0 36.96 -7.8 0c-2.75,-9.77 -11.73,-16.94 -22.39,-16.94 -10.65,0 -19.63,7.17 -22.38,16.94l-11.85 0 0 -0.31c-0.1,0 -0.21,0.01 -0.31,0.01l-38.5 0c-0.93,-3.14 -2.51,-6.01 -4.58,-8.44l40.97 0 0 -75.99c0,-3.85 -1.58,-7.35 -4.11,-9.88 -2.54,-2.54 -6.04,-4.11 -9.88,-4.11l-70.95 0c-3.85,0 -7.35,1.57 -9.89,4.11 -2.53,2.53 -4.1,6.03 -4.1,9.88l0 60.21c0,4.34 1.77,8.29 4.62,11.14l0.02 0.02c2.85,2.85 6.79,4.62 11.14,4.62l6.74 0c-2.07,2.43 -3.64,5.3 -4.57,8.44l-2.17 0c-6.64,0 -12.69,-2.73 -17.09,-7.12l-0.02 -0.01c-4.38,-4.4 -7.11,-10.45 -7.11,-17.09l0 -60.21c0,-6.16 2.53,-11.76 6.59,-15.82l0.01 -0.02c4.07,-4.06 9.67,-6.58 15.83,-6.58zm108.38 44.7l16.31 -0.09 15.47 25.58 -31.78 -3.87 0 -21.62zm13.21 51.71c9.42,0 17.06,7.64 17.06,17.06 0,9.41 -7.64,17.05 -17.06,17.05 -9.41,0 -17.05,-7.64 -17.05,-17.05 0,-9.42 7.64,-17.06 17.05,-17.06zm0 10.04c3.88,0 7.02,3.14 7.02,7.02 0,3.87 -3.14,7.01 -7.02,7.01 -3.87,0 -7.01,-3.14 -7.01,-7.01 0,-3.88 3.14,-7.02 7.01,-7.02zm-95.34 0c3.87,0 7.01,3.14 7.01,7.02 0,3.87 -3.14,7.01 -7.01,7.01 -3.87,0 -7.01,-3.14 -7.01,-7.01 0,-3.88 3.14,-7.02 7.01,-7.02z"/>
  </g>
 </g>
</svg>
