<?xml version="1.0" encoding="UTF-8"?>
<!DOCTYPE svg PUBLIC "-//W3C//DTD SVG 1.1//EN" "http://www.w3.org/Graphics/SVG/1.1/DTD/svg11.dtd">
<!-- Creator: CorelDRAW 2018 (64-Bit) -->
<svg xmlns="http://www.w3.org/2000/svg" xml:space="preserve" width="367px" height="367px" version="1.1" style="shape-rendering:geometricPrecision; text-rendering:geometricPrecision; image-rendering:optimizeQuality; fill-rule:evenodd; clip-rule:evenodd"
viewBox="0 0 84.35 84.35"
 xmlns:xlink="http://www.w3.org/1999/xlink">
 <defs>
  <style type="text/css">
   <![CDATA[
    .str0 {stroke:#7D70B1;stroke-width:2.71;stroke-miterlimit:22.9256}
    .fil1 {fill:none}
    .fil0 {fill:#7D70B1;fill-rule:nonzero}
   ]]>
  </style>
 </defs>
 <g id="Слой_x0020_1">
  <metadata id="CorelCorpID_0Corel-Layer"/>
  <g id="_3228886167584">
   <path class="fil0" d="M23.86 26.11l0 -11.43 43.96 0 0 35.59 -29.67 0 0 -2.71 26.96 0 0 -30.16 -38.54 0 0 8.71 -2.71 0zm6.33 15.93c0.36,0.07 0.72,0.18 1.07,0.31 0.34,0.13 0.65,0.27 0.95,0.41 0.66,0.32 1.34,0.78 1.87,1.35 0.51,0.56 0.89,1.21 1.04,1.94l2.4 12.05 -0.72 0.51c-1.56,1.09 -3.46,2 -5.43,2.63 -1.96,0.63 -4.01,0.99 -5.83,0.99 -1.92,-0.01 -3.75,-0.27 -5.58,-0.85 -1.81,-0.58 -3.61,-1.47 -5.46,-2.75l-0.71 -0.48 1.96 -11.88c0.12,-0.75 0.48,-1.46 0.97,-2.06 0.5,-0.61 1.15,-1.13 1.83,-1.48 0.35,-0.17 0.7,-0.34 1.04,-0.49 0.36,-0.15 0.73,-0.29 1.11,-0.4l1.11 -0.32 3.76 8.03 3.58 -7.71 1.04 0.2zm0.85 3.17l-0.39 -0.18 -5.07 10.92 -5.2 -11.1c-0.2,0.09 -0.4,0.19 -0.61,0.3 -0.36,0.18 -0.7,0.45 -0.96,0.77 -0.2,0.25 -0.35,0.53 -0.4,0.79l-1.67 10.17c1.37,0.87 2.71,1.5 4.04,1.93 1.55,0.49 3.12,0.71 4.76,0.72 1.54,0 3.29,-0.31 5.01,-0.86 1.41,-0.46 2.78,-1.07 3.96,-1.8l-2.05 -10.29c-0.04,-0.2 -0.18,-0.42 -0.36,-0.62 -0.29,-0.31 -0.67,-0.57 -1.06,-0.75zm-5.65 -17.15c3.89,0 7.04,3.25 7.04,7.26 0,1.88 -0.69,3.59 -1.83,4.88l-1.93 0c0.46,-0.82 0.78,-1.77 0.89,-2.72 0.12,-1.05 -0.16,-2.02 -0.7,-2.81 -0.17,0.03 -0.34,0.04 -0.51,0.04 -1.24,0 -2.32,-0.69 -2.87,-1.71 -0.32,1.58 -1.71,2.78 -3.39,2.78 -0.2,0 -0.4,-0.02 -0.59,-0.06 -0.18,0.54 -0.26,1.13 -0.2,1.76 0.08,0.96 0.42,1.91 0.92,2.72l-2.05 0c-1.14,-1.29 -1.83,-3 -1.83,-4.88 0,-4.01 3.15,-7.26 7.05,-7.26zm40.93 39.01c-3.35,3.25 -7.35,5.82 -11.78,7.52 -0.06,-0.38 -0.09,-0.77 -0.09,-1.16 0,-4.22 3.42,-7.64 7.64,-7.64 1.56,0 3.02,0.47 4.23,1.28zm-15.75 8.76c-2.69,0.67 -5.5,1.03 -8.39,1.03 -2.02,0 -4,-0.18 -5.92,-0.51 -0.37,-0.9 -0.58,-1.89 -0.58,-2.92 0,-4.22 3.42,-7.64 7.64,-7.64 4.22,0 7.64,3.42 7.64,7.64 0,0.84 -0.14,1.65 -0.39,2.4zm-18.62 -0.51c-4.81,-1.48 -9.17,-3.98 -12.84,-7.25 1.39,-1.41 3.31,-2.28 5.44,-2.28 4.22,0 7.64,3.42 7.64,7.64 0,0.65 -0.08,1.29 -0.24,1.89zm10.51 -44.46l18.85 0 0 2.71 -18.85 0 0 -2.71zm0 -4.8l18.85 0 0 2.71 -18.85 0 0 -2.71z"/>
   <circle class="fil1 str0" cx="42.18" cy="42.18" r="40.82"/>
  </g>
 </g>
</svg>
