<?xml version="1.0" encoding="UTF-8"?>
<!DOCTYPE svg PUBLIC "-//W3C//DTD SVG 1.1//EN" "http://www.w3.org/Graphics/SVG/1.1/DTD/svg11.dtd">
<!-- Creator: CorelDRAW 2018 (64-Bit) -->
<svg xmlns="http://www.w3.org/2000/svg" xml:space="preserve" width="367px" height="367px" version="1.1" style="shape-rendering:geometricPrecision; text-rendering:geometricPrecision; image-rendering:optimizeQuality; fill-rule:evenodd; clip-rule:evenodd"
viewBox="0 0 240.2 240.2"
 xmlns:xlink="http://www.w3.org/1999/xlink">
 <defs>
  <style type="text/css">
   <![CDATA[
    .str0 {stroke:#7D70B1;stroke-width:7.72;stroke-miterlimit:22.9256}
    .fil0 {fill:none}
    .fil1 {fill:#7D70B1}
   ]]>
  </style>
 </defs>
 <g id="Слой_x0020_1">
  <metadata id="CorelCorpID_0Corel-Layer"/>
  <g id="_3228370924640">
   <circle class="fil0 str0" cx="120.1" cy="120.1" r="116.24"/>
   <path class="fil1" d="M121.04 32.09c19.59,0 35.46,16.35 35.46,36.53 0,9.46 -3.49,18.07 -9.21,24.56l-9.71 0c2.28,-4.14 3.9,-8.91 4.46,-13.67 0.63,-5.3 -0.82,-10.19 -3.53,-14.12 -0.84,0.13 -1.7,0.2 -2.57,0.2 -6.24,0 -11.67,-3.49 -14.44,-8.63 -1.58,7.96 -8.59,13.97 -17.02,13.97 -1.02,0 -2.03,-0.09 -3,-0.26 -0.89,2.7 -1.27,5.68 -1,8.84 0.41,4.83 2.14,9.58 4.61,13.67l-10.29 0c-5.73,-6.49 -9.22,-15.1 -9.22,-24.56 0,-20.18 15.88,-36.53 35.46,-36.53zm-37.87 118.09l25.96 0 0 16.86 -25.96 0 0 -16.86zm61.47 -44.82c1.66,0.32 3.29,0.81 4.9,1.42 1.6,0.61 3.09,1.27 4.56,1.98 3.03,1.44 6.1,3.55 8.5,6.14 2.22,2.39 3.89,5.21 4.51,8.32l11.71 58.72 -2.06 1.45c-7.59,5.33 -16.9,9.76 -26.49,12.85 -9.62,3.1 -19.59,4.86 -28.46,4.83 -9.34,-0.03 -18.27,-1.29 -27.15,-4.12 -8.86,-2.83 -17.64,-7.2 -26.73,-13.44l-2.02 -1.39 9.54 -57.89c0.54,-3.26 2.1,-6.35 4.26,-9 2.25,-2.76 5.18,-5.09 8.26,-6.65 1.72,-0.87 3.4,-1.68 5.09,-2.4 1.71,-0.73 3.44,-1.37 5.22,-1.88l2.61 -0.76 18.62 25.85 -13.42 0.19 15.89 20.48 15.89 -20.48 -14.41 -0.19 18.86 -24.48 2.32 0.45zm2.18 8.63c-0.47,-0.18 -0.94,-0.34 -1.4,-0.49l-6.48 8.4 14.48 0.19 -31.44 40.52 -31.44 -40.51 14.1 -0.2 -6.75 -9.36c-0.6,0.23 -1.2,0.47 -1.82,0.73 -1.51,0.65 -3.05,1.39 -4.63,2.19 -2.15,1.09 -4.19,2.71 -5.75,4.63 -1.36,1.66 -2.33,3.52 -2.64,5.37l-8.75 53.08c7.72,5.07 15.19,8.69 22.68,11.08 8.11,2.58 16.27,3.74 24.83,3.76 8.06,0.03 17.21,-1.6 26.11,-4.47 8.01,-2.58 15.78,-6.16 22.34,-10.43l-10.72 -53.75c-0.32,-1.62 -1.28,-3.18 -2.58,-4.58 -1.69,-1.83 -3.93,-3.36 -6.18,-4.43 -1.39,-0.66 -2.73,-1.26 -3.96,-1.73z"/>
  </g>
 </g>
</svg>
