<?xml version="1.0" encoding="UTF-8"?>
<!DOCTYPE svg PUBLIC "-//W3C//DTD SVG 1.1//EN" "http://www.w3.org/Graphics/SVG/1.1/DTD/svg11.dtd">
<!-- Creator: CorelDRAW 2018 (64-Bit) -->
<svg xmlns="http://www.w3.org/2000/svg" xml:space="preserve" width="367px" height="367px" version="1.1" style="shape-rendering:geometricPrecision; text-rendering:geometricPrecision; image-rendering:optimizeQuality; fill-rule:evenodd; clip-rule:evenodd"
viewBox="0 0 84.35 84.35"
 xmlns:xlink="http://www.w3.org/1999/xlink">
 <defs>
  <style type="text/css">
   <![CDATA[
    .str0 {stroke:#7D70B1;stroke-width:2.71;stroke-miterlimit:22.9256}
    .fil0 {fill:none}
    .fil1 {fill:#7D70B1;fill-rule:nonzero}
   ]]>
  </style>
 </defs>
 <g id="Слой_x0020_1">
  <metadata id="CorelCorpID_0Corel-Layer"/>
  <g id="_3228372065056">
   <circle class="fil0 str0" cx="42.18" cy="42.18" r="40.82"/>
   <path class="fil1" d="M45.43 60.23l-26.52 0c-0.57,0 -1.09,-0.24 -1.47,-0.62l-0.01 0c-0.38,-0.38 -0.61,-0.9 -0.61,-1.47l0 -30.59c0,-0.57 0.23,-1.1 0.61,-1.47l0.01 -0.01c0.38,-0.38 0.9,-0.61 1.47,-0.61l44.59 0c0.57,0 1.09,0.23 1.47,0.61l0.01 0.01c0.38,0.37 0.61,0.9 0.61,1.47l0 30.59c0,0.57 -0.23,1.1 -0.61,1.47 -0.38,0.38 -0.9,0.62 -1.48,0.62l-7.91 0 0 -2.71 7.29 0 0 -29.35 -43.35 0 0 29.35 25.9 0 0 2.71zm5.06 -8.61l0.04 0c2.68,-0.02 4.85,-2.19 4.85,-4.88 0,-2.69 -2.18,-4.87 -4.87,-4.87 -2.69,0 -4.88,2.18 -4.88,4.87 0,2.69 2.17,4.86 4.86,4.88zm3.32 1.89l0 14.49 -3.3 -3.31 -3.31 3.31 0 -14.49c-2.5,-1.23 -4.22,-3.79 -4.22,-6.77 0,-4.15 3.37,-7.53 7.53,-7.53 4.15,0 7.53,3.38 7.53,7.53 0,2.98 -1.73,5.54 -4.23,6.77zm-28.99 -5.46l13.28 0 0 2.71 -13.28 0 0 -2.71zm0 -5.76l13.28 0 0 2.71 -13.28 0 0 -2.71zm0 -8.86l32.33 0 0 2.71 -32.33 0 0 -2.71z"/>
  </g>
 </g>
</svg>
